<svg xmlns="http://www.w3.org/2000/svg" xmlns:xlink="http://www.w3.org/1999/xlink" width="24" height="24" viewBox="0 0 24 24">
    <defs>
        <path id="a" d="M0 0h24v24H0z"/>
    </defs>
    <g fill="none" fill-rule="evenodd">
        <mask id="b" fill="#fff">
            <use xlink:href="#a"/>
        </mask>
        <path fill="#FFF" d="M13.115 19.804v-7.492h2.226c.1-1.037.191-2.009.294-3.09h-2.4V8.53c-.004-1.054.103-1.165 1.135-1.17.388-.003.776-.001 1.182-.001V4.786c-1.03 0-2.027-.095-2.998.022-1.497.18-2.4 1.276-2.472 2.812-.024.515-.004 1.032-.004 1.593l-1.464.085v3.053h1.488v7.52c.924 0 1.742.002 2.56-.002.12 0 .237-.033.453-.065M11.997 24C5.98 24.047.007 19.373 0 11.999-.006 5.249 5.155-.01 12.006 0 19.39.01 24.018 5.977 24 12.009c-.02 6.644-5.357 11.992-12.003 11.99" mask="url(#b)"/>
    </g>
</svg>
