<svg xmlns="http://www.w3.org/2000/svg" xmlns:xlink="http://www.w3.org/1999/xlink" width="24" height="24" viewBox="0 0 24 24">
    <defs>
        <path id="a" d="M0 .026h23.973v23.826H0z"/>
    </defs>
    <g fill="none" fill-rule="evenodd">
        <g>
            <mask id="b" fill="#fff">
                <use xlink:href="#a"/>
            </mask>
            <path fill="#FFF" d="M18.357 15.548c-.016 1.611-1.135 2.77-2.755 2.79-2.408.027-4.818.025-7.226 0-1.619-.016-2.766-1.16-2.782-2.77a371.413 371.413 0 0 1 0-7.256c.017-1.586 1.127-2.718 2.724-2.742 2.433-.036 4.868-.034 7.301 0 1.639.022 2.725 1.165 2.738 2.795.01 1.21.002 2.42.002 3.629 0 1.184.009 2.37-.002 3.554M11.974.026C4.507.038-.041 6.088 0 11.949a11.931 11.931 0 0 0 11.985 11.903c6.625 0 11.99-5.332 11.988-11.915-.052-6.305-4.881-11.923-12-11.911" mask="url(#b)"/>
        </g>
        <path fill="#FFF" d="M15.565 9.333c-.47.106-.795-.208-.812-.688-.016-.473.278-.825.75-.763.307.04.577.348.863.536l.013.323c-.27.206-.513.524-.814.592m-3.553 5.918a3.232 3.232 0 0 1-3.268-3.264 3.256 3.256 0 0 1 3.246-3.225c1.804-.008 3.298 1.484 3.28 3.274-.017 1.773-1.473 3.21-3.258 3.215m5.123-6.753c-.013-1.013-.616-1.623-1.636-1.63a536.652 536.652 0 0 0-7.01 0c-1.014.008-1.621.632-1.625 1.64-.009 2.338-.01 4.675 0 7.013.004 1.031.581 1.606 1.636 1.612 2.337.013 4.674.014 7.01 0 1.052-.007 1.613-.577 1.626-1.623.014-1.156.003-2.313.003-3.47 0-1.18.011-2.361-.004-3.542"/>
        <path fill="#FFF" d="M11.625 10.286a2.04 2.04 0 0 0-2.024 2.1 2.072 2.072 0 0 0 2.054 2.014 2.074 2.074 0 0 0 2.06-2.08c-.01-1.156-.927-2.048-2.09-2.034"/>
    </g>
</svg>
